<mxfile host="app.diagrams.net" modified="2021-06-15T09:55:32.497Z" agent="5.0 (Windows NT 10.0; Win64; x64) AppleWebKit/537.36 (KHTML, like Gecko) Chrome/91.0.4472.77 Safari/537.36" etag="lce1Mi1unzug4m3hEGmF" version="14.7.8" type="github">
  <diagram id="C5RBs43oDa-KdzZeNtuy" name="Page-1">
    <mxGraphModel dx="1667" dy="676" grid="1" gridSize="10" guides="1" tooltips="1" connect="1" arrows="1" fold="1" page="1" pageScale="1" pageWidth="827" pageHeight="1169" math="0" shadow="0">
      <root>
        <mxCell id="WIyWlLk6GJQsqaUBKTNV-0" />
        <mxCell id="WIyWlLk6GJQsqaUBKTNV-1" parent="WIyWlLk6GJQsqaUBKTNV-0" />
        <mxCell id="WIyWlLk6GJQsqaUBKTNV-2" value="" style="rounded=0;html=1;jettySize=auto;orthogonalLoop=1;fontSize=11;endArrow=block;endFill=0;endSize=8;strokeWidth=1;shadow=0;labelBackgroundColor=none;edgeStyle=orthogonalEdgeStyle;entryX=0.5;entryY=0;entryDx=0;entryDy=0;" parent="WIyWlLk6GJQsqaUBKTNV-1" source="WIyWlLk6GJQsqaUBKTNV-3" target="N6wHGYZwscQPNI5AvdY5-2" edge="1">
          <mxGeometry relative="1" as="geometry" />
        </mxCell>
        <mxCell id="WIyWlLk6GJQsqaUBKTNV-3" value="开始" style="rounded=1;whiteSpace=wrap;html=1;fontSize=12;glass=0;strokeWidth=1;shadow=0;" parent="WIyWlLk6GJQsqaUBKTNV-1" vertex="1">
          <mxGeometry x="80" y="160" width="120" height="20" as="geometry" />
        </mxCell>
        <mxCell id="N6wHGYZwscQPNI5AvdY5-2" value="下载对账单" style="rounded=0;whiteSpace=wrap;html=1;" vertex="1" parent="WIyWlLk6GJQsqaUBKTNV-1">
          <mxGeometry x="85" y="220" width="110" height="30" as="geometry" />
        </mxCell>
        <mxCell id="N6wHGYZwscQPNI5AvdY5-4" value="" style="rounded=0;html=1;jettySize=auto;orthogonalLoop=1;fontSize=11;endArrow=block;endFill=0;endSize=8;strokeWidth=1;shadow=0;labelBackgroundColor=none;edgeStyle=orthogonalEdgeStyle;entryX=0.5;entryY=0;entryDx=0;entryDy=0;exitX=0.5;exitY=1;exitDx=0;exitDy=0;" edge="1" parent="WIyWlLk6GJQsqaUBKTNV-1" source="N6wHGYZwscQPNI5AvdY5-2">
          <mxGeometry relative="1" as="geometry">
            <mxPoint x="90" y="170.00000000000006" as="sourcePoint" />
            <mxPoint x="140" y="290" as="targetPoint" />
          </mxGeometry>
        </mxCell>
        <mxCell id="N6wHGYZwscQPNI5AvdY5-5" value="解析对账文件" style="rounded=0;whiteSpace=wrap;html=1;" vertex="1" parent="WIyWlLk6GJQsqaUBKTNV-1">
          <mxGeometry x="85" y="290" width="110" height="30" as="geometry" />
        </mxCell>
        <mxCell id="N6wHGYZwscQPNI5AvdY5-6" value="" style="rounded=0;html=1;jettySize=auto;orthogonalLoop=1;fontSize=11;endArrow=block;endFill=0;endSize=8;strokeWidth=1;shadow=0;labelBackgroundColor=none;edgeStyle=orthogonalEdgeStyle;exitX=0.5;exitY=1;exitDx=0;exitDy=0;" edge="1" parent="WIyWlLk6GJQsqaUBKTNV-1" source="N6wHGYZwscQPNI5AvdY5-5">
          <mxGeometry relative="1" as="geometry">
            <mxPoint x="150" y="260" as="sourcePoint" />
            <mxPoint x="140" y="350" as="targetPoint" />
          </mxGeometry>
        </mxCell>
        <mxCell id="N6wHGYZwscQPNI5AvdY5-7" value="转化成数据库对象" style="rounded=0;whiteSpace=wrap;html=1;" vertex="1" parent="WIyWlLk6GJQsqaUBKTNV-1">
          <mxGeometry x="85" y="350" width="110" height="30" as="geometry" />
        </mxCell>
        <mxCell id="N6wHGYZwscQPNI5AvdY5-8" value="" style="rounded=0;html=1;jettySize=auto;orthogonalLoop=1;fontSize=11;endArrow=block;endFill=0;endSize=8;strokeWidth=1;shadow=0;labelBackgroundColor=none;edgeStyle=orthogonalEdgeStyle;exitX=0.5;exitY=1;exitDx=0;exitDy=0;" edge="1" parent="WIyWlLk6GJQsqaUBKTNV-1" source="N6wHGYZwscQPNI5AvdY5-7">
          <mxGeometry relative="1" as="geometry">
            <mxPoint x="150" y="330" as="sourcePoint" />
            <mxPoint x="140" y="420" as="targetPoint" />
          </mxGeometry>
        </mxCell>
        <mxCell id="N6wHGYZwscQPNI5AvdY5-9" value="录入渠道账单表" style="rounded=0;whiteSpace=wrap;html=1;" vertex="1" parent="WIyWlLk6GJQsqaUBKTNV-1">
          <mxGeometry x="85" y="420" width="110" height="30" as="geometry" />
        </mxCell>
        <mxCell id="N6wHGYZwscQPNI5AvdY5-10" value="结束" style="rounded=1;whiteSpace=wrap;html=1;fontSize=12;glass=0;strokeWidth=1;shadow=0;" vertex="1" parent="WIyWlLk6GJQsqaUBKTNV-1">
          <mxGeometry x="80" y="480" width="120" height="20" as="geometry" />
        </mxCell>
        <mxCell id="N6wHGYZwscQPNI5AvdY5-11" value="" style="rounded=0;html=1;jettySize=auto;orthogonalLoop=1;fontSize=11;endArrow=block;endFill=0;endSize=8;strokeWidth=1;shadow=0;labelBackgroundColor=none;edgeStyle=orthogonalEdgeStyle;exitX=0.5;exitY=1;exitDx=0;exitDy=0;entryX=0.5;entryY=0;entryDx=0;entryDy=0;" edge="1" parent="WIyWlLk6GJQsqaUBKTNV-1" source="N6wHGYZwscQPNI5AvdY5-9" target="N6wHGYZwscQPNI5AvdY5-10">
          <mxGeometry relative="1" as="geometry">
            <mxPoint x="150" y="390" as="sourcePoint" />
            <mxPoint x="150" y="430" as="targetPoint" />
          </mxGeometry>
        </mxCell>
        <mxCell id="N6wHGYZwscQPNI5AvdY5-12" value="对账单下载模块" style="rounded=1;whiteSpace=wrap;html=1;" vertex="1" parent="WIyWlLk6GJQsqaUBKTNV-1">
          <mxGeometry x="80" y="70" width="120" height="60" as="geometry" />
        </mxCell>
        <mxCell id="N6wHGYZwscQPNI5AvdY5-13" value="核对模块" style="rounded=1;whiteSpace=wrap;html=1;" vertex="1" parent="WIyWlLk6GJQsqaUBKTNV-1">
          <mxGeometry x="397.5" y="70" width="120" height="60" as="geometry" />
        </mxCell>
        <mxCell id="N6wHGYZwscQPNI5AvdY5-14" value="" style="rounded=0;html=1;jettySize=auto;orthogonalLoop=1;fontSize=11;endArrow=block;endFill=0;endSize=8;strokeWidth=1;shadow=0;labelBackgroundColor=none;edgeStyle=orthogonalEdgeStyle;exitX=0.5;exitY=1;exitDx=0;exitDy=0;" edge="1" parent="WIyWlLk6GJQsqaUBKTNV-1" source="N6wHGYZwscQPNI5AvdY5-12">
          <mxGeometry relative="1" as="geometry">
            <mxPoint x="150" y="190" as="sourcePoint" />
            <mxPoint x="140" y="160" as="targetPoint" />
          </mxGeometry>
        </mxCell>
        <mxCell id="N6wHGYZwscQPNI5AvdY5-15" value="开始" style="rounded=1;whiteSpace=wrap;html=1;fontSize=12;glass=0;strokeWidth=1;shadow=0;" vertex="1" parent="WIyWlLk6GJQsqaUBKTNV-1">
          <mxGeometry x="400" y="150" width="120" height="30" as="geometry" />
        </mxCell>
        <mxCell id="N6wHGYZwscQPNI5AvdY5-16" value="" style="rounded=0;html=1;jettySize=auto;orthogonalLoop=1;fontSize=11;endArrow=block;endFill=0;endSize=8;strokeWidth=1;shadow=0;labelBackgroundColor=none;edgeStyle=orthogonalEdgeStyle;exitX=0.5;exitY=1;exitDx=0;exitDy=0;entryX=0.5;entryY=0;entryDx=0;entryDy=0;" edge="1" parent="WIyWlLk6GJQsqaUBKTNV-1" source="N6wHGYZwscQPNI5AvdY5-13" target="N6wHGYZwscQPNI5AvdY5-15">
          <mxGeometry relative="1" as="geometry">
            <mxPoint x="292.5" y="140" as="sourcePoint" />
            <mxPoint x="292.5" y="170" as="targetPoint" />
          </mxGeometry>
        </mxCell>
        <mxCell id="N6wHGYZwscQPNI5AvdY5-17" value="取出当日全量订单记录&lt;br&gt;(本地+渠道)" style="rounded=0;whiteSpace=wrap;html=1;" vertex="1" parent="WIyWlLk6GJQsqaUBKTNV-1">
          <mxGeometry x="397.5" y="210" width="125" height="40" as="geometry" />
        </mxCell>
        <mxCell id="N6wHGYZwscQPNI5AvdY5-18" value="" style="rounded=0;html=1;jettySize=auto;orthogonalLoop=1;fontSize=11;endArrow=block;endFill=0;endSize=8;strokeWidth=1;shadow=0;labelBackgroundColor=none;edgeStyle=orthogonalEdgeStyle;entryX=0.5;entryY=0;entryDx=0;entryDy=0;exitX=0.5;exitY=1;exitDx=0;exitDy=0;" edge="1" parent="WIyWlLk6GJQsqaUBKTNV-1" source="N6wHGYZwscQPNI5AvdY5-15" target="N6wHGYZwscQPNI5AvdY5-17">
          <mxGeometry relative="1" as="geometry">
            <mxPoint x="292.5" y="190" as="sourcePoint" />
            <mxPoint x="292.5" y="230" as="targetPoint" />
          </mxGeometry>
        </mxCell>
        <mxCell id="N6wHGYZwscQPNI5AvdY5-20" value="" style="rounded=0;html=1;jettySize=auto;orthogonalLoop=1;fontSize=11;endArrow=block;endFill=0;endSize=8;strokeWidth=1;shadow=0;labelBackgroundColor=none;edgeStyle=orthogonalEdgeStyle;entryX=0.5;entryY=0;entryDx=0;entryDy=0;" edge="1" parent="WIyWlLk6GJQsqaUBKTNV-1" target="N6wHGYZwscQPNI5AvdY5-21">
          <mxGeometry relative="1" as="geometry">
            <mxPoint x="452.5" y="250" as="sourcePoint" />
            <mxPoint x="452.5" y="290" as="targetPoint" />
          </mxGeometry>
        </mxCell>
        <mxCell id="N6wHGYZwscQPNI5AvdY5-21" value="逐一比对" style="shape=parallelogram;perimeter=parallelogramPerimeter;whiteSpace=wrap;html=1;fixedSize=1;" vertex="1" parent="WIyWlLk6GJQsqaUBKTNV-1">
          <mxGeometry x="400" y="280" width="120" height="30" as="geometry" />
        </mxCell>
        <mxCell id="N6wHGYZwscQPNI5AvdY5-22" value="是否对平?" style="rhombus;whiteSpace=wrap;html=1;" vertex="1" parent="WIyWlLk6GJQsqaUBKTNV-1">
          <mxGeometry x="400" y="340" width="120" height="40" as="geometry" />
        </mxCell>
        <mxCell id="N6wHGYZwscQPNI5AvdY5-23" value="" style="rounded=0;html=1;jettySize=auto;orthogonalLoop=1;fontSize=11;endArrow=block;endFill=0;endSize=8;strokeWidth=1;shadow=0;labelBackgroundColor=none;edgeStyle=orthogonalEdgeStyle;entryX=0.5;entryY=0;entryDx=0;entryDy=0;exitX=0.5;exitY=1;exitDx=0;exitDy=0;" edge="1" parent="WIyWlLk6GJQsqaUBKTNV-1" source="N6wHGYZwscQPNI5AvdY5-21" target="N6wHGYZwscQPNI5AvdY5-22">
          <mxGeometry relative="1" as="geometry">
            <mxPoint x="462.5" y="260" as="sourcePoint" />
            <mxPoint x="462.5" y="300" as="targetPoint" />
          </mxGeometry>
        </mxCell>
        <mxCell id="N6wHGYZwscQPNI5AvdY5-29" value="" style="rounded=0;html=1;jettySize=auto;orthogonalLoop=1;fontSize=11;endArrow=block;endFill=0;endSize=8;strokeWidth=1;shadow=0;labelBackgroundColor=none;edgeStyle=orthogonalEdgeStyle;exitX=0.5;exitY=1;exitDx=0;exitDy=0;entryX=0.5;entryY=0;entryDx=0;entryDy=0;" edge="1" parent="WIyWlLk6GJQsqaUBKTNV-1">
          <mxGeometry relative="1" as="geometry">
            <mxPoint x="459.5" y="630" as="sourcePoint" />
            <mxPoint x="459.5" y="680" as="targetPoint" />
          </mxGeometry>
        </mxCell>
        <mxCell id="N6wHGYZwscQPNI5AvdY5-33" value="" style="rounded=0;html=1;jettySize=auto;orthogonalLoop=1;fontSize=11;endArrow=block;endFill=0;endSize=8;strokeWidth=1;shadow=0;labelBackgroundColor=none;edgeStyle=orthogonalEdgeStyle;exitX=0;exitY=0.5;exitDx=0;exitDy=0;entryX=0;entryY=0.25;entryDx=0;entryDy=0;" edge="1" parent="WIyWlLk6GJQsqaUBKTNV-1" source="N6wHGYZwscQPNI5AvdY5-66" target="N6wHGYZwscQPNI5AvdY5-21">
          <mxGeometry relative="1" as="geometry">
            <mxPoint x="397.5" y="610" as="sourcePoint" />
            <mxPoint x="469.9999999999998" y="489.9999999999999" as="targetPoint" />
            <Array as="points">
              <mxPoint x="300" y="700" />
              <mxPoint x="300" y="289" />
            </Array>
          </mxGeometry>
        </mxCell>
        <mxCell id="N6wHGYZwscQPNI5AvdY5-35" value="" style="rounded=0;html=1;jettySize=auto;orthogonalLoop=1;fontSize=11;endArrow=block;endFill=0;endSize=8;strokeWidth=1;shadow=0;labelBackgroundColor=none;edgeStyle=orthogonalEdgeStyle;exitX=1;exitY=0.5;exitDx=0;exitDy=0;entryX=0;entryY=0;entryDx=0;entryDy=0;" edge="1" parent="WIyWlLk6GJQsqaUBKTNV-1" source="N6wHGYZwscQPNI5AvdY5-22" target="N6wHGYZwscQPNI5AvdY5-49">
          <mxGeometry relative="1" as="geometry">
            <mxPoint x="469.9999999999998" y="320.0000000000001" as="sourcePoint" />
            <mxPoint x="580" y="300" as="targetPoint" />
            <Array as="points">
              <mxPoint x="570" y="360" />
              <mxPoint x="570" y="360" />
            </Array>
          </mxGeometry>
        </mxCell>
        <mxCell id="N6wHGYZwscQPNI5AvdY5-36" value="否" style="text;html=1;align=center;verticalAlign=middle;resizable=0;points=[];autosize=1;strokeColor=none;" vertex="1" parent="WIyWlLk6GJQsqaUBKTNV-1">
          <mxGeometry x="515" y="340" width="30" height="20" as="geometry" />
        </mxCell>
        <mxCell id="N6wHGYZwscQPNI5AvdY5-41" value="" style="rounded=0;html=1;jettySize=auto;orthogonalLoop=1;fontSize=11;endArrow=block;endFill=0;endSize=8;strokeWidth=1;shadow=0;labelBackgroundColor=none;edgeStyle=orthogonalEdgeStyle;entryX=0;entryY=0.5;entryDx=0;entryDy=0;" edge="1" parent="WIyWlLk6GJQsqaUBKTNV-1" target="N6wHGYZwscQPNI5AvdY5-50">
          <mxGeometry relative="1" as="geometry">
            <mxPoint x="550" y="460" as="sourcePoint" />
            <mxPoint x="575" y="440" as="targetPoint" />
            <Array as="points">
              <mxPoint x="555" y="460" />
              <mxPoint x="555" y="460" />
            </Array>
          </mxGeometry>
        </mxCell>
        <mxCell id="N6wHGYZwscQPNI5AvdY5-44" value="" style="rounded=0;html=1;jettySize=auto;orthogonalLoop=1;fontSize=11;endArrow=block;endFill=0;endSize=8;strokeWidth=1;shadow=0;labelBackgroundColor=none;edgeStyle=orthogonalEdgeStyle;exitX=0.083;exitY=0.978;exitDx=0;exitDy=0;exitPerimeter=0;entryX=0;entryY=0.5;entryDx=0;entryDy=0;" edge="1" parent="WIyWlLk6GJQsqaUBKTNV-1" source="N6wHGYZwscQPNI5AvdY5-36" target="N6wHGYZwscQPNI5AvdY5-51">
          <mxGeometry relative="1" as="geometry">
            <mxPoint x="529.9999999999998" y="369.9999999999999" as="sourcePoint" />
            <mxPoint x="580" y="470" as="targetPoint" />
            <Array as="points">
              <mxPoint x="550" y="360" />
              <mxPoint x="550" y="540" />
            </Array>
          </mxGeometry>
        </mxCell>
        <mxCell id="N6wHGYZwscQPNI5AvdY5-46" value="是否是历史挂账?" style="rhombus;whiteSpace=wrap;html=1;" vertex="1" parent="WIyWlLk6GJQsqaUBKTNV-1">
          <mxGeometry x="755" y="436.25" width="110" height="43.75" as="geometry" />
        </mxCell>
        <mxCell id="N6wHGYZwscQPNI5AvdY5-48" value="挂账" style="shape=parallelogram;perimeter=parallelogramPerimeter;whiteSpace=wrap;html=1;fixedSize=1;" vertex="1" parent="WIyWlLk6GJQsqaUBKTNV-1">
          <mxGeometry x="735" y="365" width="120" height="30" as="geometry" />
        </mxCell>
        <mxCell id="N6wHGYZwscQPNI5AvdY5-49" value="&lt;span&gt;本地存在，&lt;/span&gt;&lt;br&gt;&lt;span&gt;渠道不存在&lt;/span&gt;" style="rounded=0;whiteSpace=wrap;html=1;" vertex="1" parent="WIyWlLk6GJQsqaUBKTNV-1">
          <mxGeometry x="585" y="360" width="120" height="40" as="geometry" />
        </mxCell>
        <mxCell id="N6wHGYZwscQPNI5AvdY5-50" value="&lt;span&gt;本地不存在，&lt;/span&gt;&lt;br&gt;&lt;span&gt;渠道存在&lt;/span&gt;" style="rounded=0;whiteSpace=wrap;html=1;" vertex="1" parent="WIyWlLk6GJQsqaUBKTNV-1">
          <mxGeometry x="585" y="440" width="120" height="40" as="geometry" />
        </mxCell>
        <mxCell id="N6wHGYZwscQPNI5AvdY5-51" value="错账" style="rounded=0;whiteSpace=wrap;html=1;" vertex="1" parent="WIyWlLk6GJQsqaUBKTNV-1">
          <mxGeometry x="585" y="520" width="120" height="40" as="geometry" />
        </mxCell>
        <mxCell id="N6wHGYZwscQPNI5AvdY5-52" value="" style="rounded=0;html=1;jettySize=auto;orthogonalLoop=1;fontSize=11;endArrow=block;endFill=0;endSize=8;strokeWidth=1;shadow=0;labelBackgroundColor=none;edgeStyle=orthogonalEdgeStyle;exitX=1;exitY=0.5;exitDx=0;exitDy=0;entryX=0;entryY=0.5;entryDx=0;entryDy=0;" edge="1" parent="WIyWlLk6GJQsqaUBKTNV-1" source="N6wHGYZwscQPNI5AvdY5-50" target="N6wHGYZwscQPNI5AvdY5-46">
          <mxGeometry relative="1" as="geometry">
            <mxPoint x="524.9999999999998" y="449.9999999999999" as="sourcePoint" />
            <mxPoint x="585" y="449.9999999999999" as="targetPoint" />
            <Array as="points">
              <mxPoint x="705" y="458" />
            </Array>
          </mxGeometry>
        </mxCell>
        <mxCell id="N6wHGYZwscQPNI5AvdY5-53" value="" style="rounded=0;html=1;jettySize=auto;orthogonalLoop=1;fontSize=11;endArrow=block;endFill=0;endSize=8;strokeWidth=1;shadow=0;labelBackgroundColor=none;edgeStyle=orthogonalEdgeStyle;exitX=1;exitY=0.5;exitDx=0;exitDy=0;entryX=0;entryY=0.5;entryDx=0;entryDy=0;" edge="1" parent="WIyWlLk6GJQsqaUBKTNV-1" source="N6wHGYZwscQPNI5AvdY5-49" target="N6wHGYZwscQPNI5AvdY5-48">
          <mxGeometry relative="1" as="geometry">
            <mxPoint x="715.0000000000002" y="379.0499999999999" as="sourcePoint" />
            <mxPoint x="745" y="381" as="targetPoint" />
            <Array as="points" />
          </mxGeometry>
        </mxCell>
        <mxCell id="N6wHGYZwscQPNI5AvdY5-55" value="重新核对&lt;br&gt;历史挂账" style="shape=parallelogram;perimeter=parallelogramPerimeter;whiteSpace=wrap;html=1;fixedSize=1;" vertex="1" parent="WIyWlLk6GJQsqaUBKTNV-1">
          <mxGeometry x="895" y="443.13" width="120" height="30" as="geometry" />
        </mxCell>
        <mxCell id="N6wHGYZwscQPNI5AvdY5-56" value="" style="rounded=0;html=1;jettySize=auto;orthogonalLoop=1;fontSize=11;endArrow=block;endFill=0;endSize=8;strokeWidth=1;shadow=0;labelBackgroundColor=none;edgeStyle=orthogonalEdgeStyle;entryX=0;entryY=0.5;entryDx=0;entryDy=0;exitX=1;exitY=0.5;exitDx=0;exitDy=0;" edge="1" parent="WIyWlLk6GJQsqaUBKTNV-1" source="N6wHGYZwscQPNI5AvdY5-46" target="N6wHGYZwscQPNI5AvdY5-55">
          <mxGeometry relative="1" as="geometry">
            <mxPoint x="915" y="528" as="sourcePoint" />
            <mxPoint x="965" y="528.125" as="targetPoint" />
            <Array as="points">
              <mxPoint x="905" y="458" />
              <mxPoint x="905" y="458" />
            </Array>
          </mxGeometry>
        </mxCell>
        <mxCell id="N6wHGYZwscQPNI5AvdY5-57" value="是" style="text;html=1;align=center;verticalAlign=middle;resizable=0;points=[];autosize=1;strokeColor=none;" vertex="1" parent="WIyWlLk6GJQsqaUBKTNV-1">
          <mxGeometry x="855" y="436.25" width="30" height="20" as="geometry" />
        </mxCell>
        <mxCell id="N6wHGYZwscQPNI5AvdY5-58" value="录入到对账结果表" style="rounded=0;whiteSpace=wrap;html=1;" vertex="1" parent="WIyWlLk6GJQsqaUBKTNV-1">
          <mxGeometry x="400.5" y="600" width="120" height="40" as="geometry" />
        </mxCell>
        <mxCell id="N6wHGYZwscQPNI5AvdY5-59" value="" style="rounded=0;html=1;jettySize=auto;orthogonalLoop=1;fontSize=11;endArrow=block;endFill=0;endSize=8;strokeWidth=1;shadow=0;labelBackgroundColor=none;edgeStyle=orthogonalEdgeStyle;exitX=1;exitY=0.5;exitDx=0;exitDy=0;entryX=1;entryY=0.5;entryDx=0;entryDy=0;" edge="1" parent="WIyWlLk6GJQsqaUBKTNV-1" source="N6wHGYZwscQPNI5AvdY5-48" target="N6wHGYZwscQPNI5AvdY5-58">
          <mxGeometry relative="1" as="geometry">
            <mxPoint x="715" y="390" as="sourcePoint" />
            <mxPoint x="1120" y="430" as="targetPoint" />
            <Array as="points">
              <mxPoint x="1050" y="380" />
              <mxPoint x="1050" y="620" />
            </Array>
          </mxGeometry>
        </mxCell>
        <mxCell id="N6wHGYZwscQPNI5AvdY5-60" value="" style="rounded=0;html=1;jettySize=auto;orthogonalLoop=1;fontSize=11;endArrow=block;endFill=0;endSize=8;strokeWidth=1;shadow=0;labelBackgroundColor=none;edgeStyle=orthogonalEdgeStyle;entryX=1;entryY=0.5;entryDx=0;entryDy=0;exitX=1;exitY=0.5;exitDx=0;exitDy=0;" edge="1" parent="WIyWlLk6GJQsqaUBKTNV-1" source="N6wHGYZwscQPNI5AvdY5-55" target="N6wHGYZwscQPNI5AvdY5-58">
          <mxGeometry relative="1" as="geometry">
            <mxPoint x="715" y="468" as="sourcePoint" />
            <mxPoint x="765.0000000000002" y="468.1249999999999" as="targetPoint" />
            <Array as="points">
              <mxPoint x="1005" y="460" />
              <mxPoint x="1020" y="460" />
              <mxPoint x="1020" y="620" />
            </Array>
          </mxGeometry>
        </mxCell>
        <mxCell id="N6wHGYZwscQPNI5AvdY5-61" value="" style="rounded=0;html=1;jettySize=auto;orthogonalLoop=1;fontSize=11;endArrow=block;endFill=0;endSize=8;strokeWidth=1;shadow=0;labelBackgroundColor=none;edgeStyle=orthogonalEdgeStyle;exitX=1;exitY=0.5;exitDx=0;exitDy=0;" edge="1" parent="WIyWlLk6GJQsqaUBKTNV-1" source="N6wHGYZwscQPNI5AvdY5-51">
          <mxGeometry relative="1" as="geometry">
            <mxPoint x="715.0000000000002" y="469.9999999999999" as="sourcePoint" />
            <mxPoint x="520" y="620" as="targetPoint" />
            <Array as="points">
              <mxPoint x="1000" y="540" />
            </Array>
          </mxGeometry>
        </mxCell>
        <mxCell id="N6wHGYZwscQPNI5AvdY5-64" value="" style="rounded=0;html=1;jettySize=auto;orthogonalLoop=1;fontSize=11;endArrow=block;endFill=0;endSize=8;strokeWidth=1;shadow=0;labelBackgroundColor=none;edgeStyle=orthogonalEdgeStyle;entryX=0.5;entryY=0;entryDx=0;entryDy=0;exitX=0.5;exitY=1;exitDx=0;exitDy=0;" edge="1" parent="WIyWlLk6GJQsqaUBKTNV-1" source="N6wHGYZwscQPNI5AvdY5-22" target="N6wHGYZwscQPNI5AvdY5-58">
          <mxGeometry relative="1" as="geometry">
            <mxPoint x="470" y="320" as="sourcePoint" />
            <mxPoint x="470" y="350" as="targetPoint" />
          </mxGeometry>
        </mxCell>
        <mxCell id="N6wHGYZwscQPNI5AvdY5-65" value="是" style="text;html=1;align=center;verticalAlign=middle;resizable=0;points=[];autosize=1;strokeColor=none;" vertex="1" parent="WIyWlLk6GJQsqaUBKTNV-1">
          <mxGeometry x="460" y="380" width="30" height="20" as="geometry" />
        </mxCell>
        <mxCell id="N6wHGYZwscQPNI5AvdY5-66" value="是否还有&lt;br&gt;待处理账单?" style="rhombus;whiteSpace=wrap;html=1;" vertex="1" parent="WIyWlLk6GJQsqaUBKTNV-1">
          <mxGeometry x="400" y="680" width="120" height="40" as="geometry" />
        </mxCell>
        <mxCell id="N6wHGYZwscQPNI5AvdY5-67" value="是" style="text;html=1;align=center;verticalAlign=middle;resizable=0;points=[];autosize=1;strokeColor=none;" vertex="1" parent="WIyWlLk6GJQsqaUBKTNV-1">
          <mxGeometry x="370" y="680" width="30" height="20" as="geometry" />
        </mxCell>
        <mxCell id="N6wHGYZwscQPNI5AvdY5-68" value="结束" style="rounded=1;whiteSpace=wrap;html=1;fontSize=12;glass=0;strokeWidth=1;shadow=0;" vertex="1" parent="WIyWlLk6GJQsqaUBKTNV-1">
          <mxGeometry x="400.5" y="770" width="120" height="30" as="geometry" />
        </mxCell>
        <mxCell id="N6wHGYZwscQPNI5AvdY5-69" value="" style="rounded=0;html=1;jettySize=auto;orthogonalLoop=1;fontSize=11;endArrow=block;endFill=0;endSize=8;strokeWidth=1;shadow=0;labelBackgroundColor=none;edgeStyle=orthogonalEdgeStyle;exitX=0.5;exitY=1;exitDx=0;exitDy=0;entryX=0.5;entryY=0;entryDx=0;entryDy=0;" edge="1" parent="WIyWlLk6GJQsqaUBKTNV-1" source="N6wHGYZwscQPNI5AvdY5-66" target="N6wHGYZwscQPNI5AvdY5-68">
          <mxGeometry relative="1" as="geometry">
            <mxPoint x="463" y="720" as="sourcePoint" />
            <mxPoint x="490" y="750" as="targetPoint" />
          </mxGeometry>
        </mxCell>
        <mxCell id="N6wHGYZwscQPNI5AvdY5-71" value="否" style="text;html=1;align=center;verticalAlign=middle;resizable=0;points=[];autosize=1;strokeColor=none;" vertex="1" parent="WIyWlLk6GJQsqaUBKTNV-1">
          <mxGeometry x="455" y="720" width="30" height="20" as="geometry" />
        </mxCell>
        <mxCell id="N6wHGYZwscQPNI5AvdY5-72" value="差异处理模块" style="rounded=1;whiteSpace=wrap;html=1;" vertex="1" parent="WIyWlLk6GJQsqaUBKTNV-1">
          <mxGeometry x="1320" y="70" width="120" height="60" as="geometry" />
        </mxCell>
      </root>
    </mxGraphModel>
  </diagram>
</mxfile>
